<?xml version="1.0" standalone="no"?>
<!DOCTYPE svg PUBLIC "-//W3C//DTD SVG 20010904//EN"
 "http://www.w3.org/TR/2001/REC-SVG-20010904/DTD/svg10.dtd">
<svg version="1.0" xmlns="http://www.w3.org/2000/svg"
 width="200.000000pt" height="200.000000pt" viewBox="0 0 200.000000 200.000000"
 preserveAspectRatio="xMidYMid meet">

<g transform="translate(0.000000,200.000000) scale(0.100000,-0.100000)"
fill="#000000" stroke="none">
<path d="M713 1398 c-11 -13 -85 -194 -163 -403 -78 -209 -145 -386 -147 -392
-8 -21 120 -17 146 5 18 15 128 292 291 735 l29 77 -68 0 c-57 0 -71 -3 -88
-22z"/>
<path d="M1002 1108 c3 -303 4 -315 27 -365 47 -105 147 -167 271 -167 124 0
228 60 271 156 21 46 24 69 24 163 0 100 -3 115 -28 167 -34 70 -78 110 -152
137 -91 34 -182 26 -232 -21 l-23 -21 0 107 c0 100 -2 108 -25 131 -20 21 -34
25 -80 25 l-57 0 4 -312z m387 -44 c78 -65 80 -251 5 -331 -33 -34 -36 -35
-94 -31 -102 7 -145 68 -143 204 1 82 27 145 71 168 15 8 50 15 79 16 41 0 58
-5 82 -26z"/>
</g>
</svg>
